<svg width="24" height="24" viewBox="0 0 24 24" fill="none" xmlns="http://www.w3.org/2000/svg">
<path d="M18.2222 19.2V3H5.77779V19.2H4V21H20V19.2H18.2222ZM11.1111 4.80001H12.8889V6.60003H11.1111V4.80001ZM11.1111 8.4H12.8889V10.2H11.1111V8.4ZM11.1111 12H12.8889V13.8H11.1111V12ZM9.33333 13.8H7.55554V12H9.33333V13.8ZM9.33333 10.2H7.55554V8.4H9.33333V10.2ZM9.33333 6.59998H7.55554V4.80001H9.33333V6.59998ZM13.7778 19.2H10.2223V17.4C10.2223 16.41 11.0223 15.6 12 15.6C12.9778 15.6 13.7778 16.41 13.7778 17.4V19.2ZM16.4445 13.8H14.6667V12H16.4445V13.8ZM16.4445 10.2H14.6667V8.4H16.4445V10.2ZM16.4445 6.59998H14.6667V4.80001H16.4445V6.59998Z" fill="white"/>
</svg>
