<svg width="23" height="16" viewBox="0 0 23 16" fill="none" xmlns="http://www.w3.org/2000/svg">
<path d="M1.33333 16C0.596955 16 0 15.403 0 14.6667C0 13.9303 0.596954 13.3333 1.33333 13.3333H21.6667C22.403 13.3333 23 13.9303 23 14.6667C23 15.403 22.403 16 21.6667 16H1.33333ZM1.33333 9.33333C0.596955 9.33333 0 8.73638 0 8C0 7.26362 0.596954 6.66667 1.33333 6.66667H21.6667C22.403 6.66667 23 7.26362 23 8C23 8.73638 22.403 9.33333 21.6667 9.33333H1.33333ZM1.33333 2.66667C0.596955 2.66667 0 2.06971 0 1.33333C0 0.596954 0.596954 0 1.33333 0H21.6667C22.403 0 23 0.596954 23 1.33333C23 2.06971 22.403 2.66667 21.6667 2.66667H1.33333Z" fill="#3C3B3A"/>
</svg>
