<svg width="36" height="36" viewBox="0 0 36 36" fill="none" xmlns="http://www.w3.org/2000/svg">
<path d="M15 12H16.5C17.2956 12 18.0587 12.3161 18.6213 12.8787C19.1839 13.4413 19.5 14.2044 19.5 15M19.5 15V16.5M19.5 15C19.5 14.6022 19.658 14.2206 19.9393 13.9393C20.2206 13.658 20.6021 13.5 21 13.5C21.7956 13.5 22.5587 13.8161 23.1213 14.3787C23.6839 14.9413 24 15.7044 24 16.5M24 16.5V18M24 16.5C24 15.714 24.705 15.117 25.4805 15.246L25.9935 15.333C26.6937 15.4498 27.3298 15.8111 27.7887 16.3527C28.2477 16.8943 28.4997 17.5811 28.5 18.291V20.5005C28.5 23.76 28.5 25.3905 28.0035 26.688C27.7155 27.441 26.955 28.401 26.3475 29.094C25.8128 29.6877 25.5117 30.4551 25.5 31.254V33M15 15V5.25C15 4.65326 14.7629 4.08097 14.3409 3.65901C13.919 3.23705 13.3467 3 12.75 3C12.1532 3 11.5809 3.23705 11.159 3.65901C10.737 4.08097 10.5 4.65326 10.5 5.25V20.193L8.06995 17.7555C7.81867 17.5031 7.51684 17.3068 7.18427 17.1793C6.85171 17.0519 6.49595 16.9962 6.14035 17.0161C5.78476 17.0359 5.43739 17.1308 5.12106 17.2944C4.80473 17.458 4.52661 17.6867 4.30495 17.9655C3.95432 18.4052 3.75928 18.9487 3.75032 19.5111C3.74137 20.0734 3.919 20.6228 4.25545 21.0735L9.65545 27.9705C10.689 29.2905 11.25 31.3245 11.25 33M32.25 6.75H23.25M32.25 6.75C32.25 5.7 29.259 3.738 28.5 3M32.25 6.75C32.25 7.8 29.259 9.762 28.5 10.5" stroke="white" stroke-width="1.5" stroke-linecap="round" stroke-linejoin="round"/>
</svg>
