<svg width="36" height="36" viewBox="0 0 36 36" fill="none" xmlns="http://www.w3.org/2000/svg">
<path d="M21 12H19.5C18.7044 12 17.9413 12.3161 17.3787 12.8787C16.8161 13.4413 16.5 14.2044 16.5 15M16.5 15V16.5M16.5 15C16.5 14.6022 16.342 14.2206 16.0607 13.9393C15.7794 13.658 15.3979 13.5 15 13.5C14.2044 13.5 13.4413 13.8161 12.8787 14.3787C12.3161 14.9413 12 15.7044 12 16.5M12 16.5V18M12 16.5C12 15.714 11.295 15.117 10.5195 15.246L10.0065 15.333C9.30632 15.4498 8.67019 15.8111 8.21125 16.3527C7.75232 16.8943 7.50031 17.5811 7.50005 18.291V20.5005C7.50005 23.76 7.50004 25.3905 7.99654 26.688C8.28454 27.441 9.04505 28.401 9.65255 29.094C10.1872 29.6877 10.4883 30.4551 10.5 31.254V33M21 15V5.25C21 4.65326 21.2371 4.08097 21.6591 3.65901C22.081 3.23705 22.6533 3 23.25 3C23.8468 3 24.4191 3.23705 24.841 3.65901C25.263 4.08097 25.5 4.65326 25.5 5.25V20.193L27.93 17.7555C28.1813 17.5031 28.4832 17.3068 28.8157 17.1793C29.1483 17.0519 29.5041 16.9962 29.8596 17.0161C30.2152 17.0359 30.5626 17.1308 30.8789 17.2944C31.1953 17.458 31.4734 17.6867 31.695 17.9655C32.0457 18.4052 32.2407 18.9487 32.2497 19.5111C32.2586 20.0734 32.081 20.6228 31.7445 21.0735L26.3445 27.9705C25.311 29.2905 24.75 31.3245 24.75 33M3.75005 6.75H12.75M3.75005 6.75C3.75005 5.7 6.74105 3.738 7.50005 3M3.75005 6.75C3.75005 7.8 6.74105 9.762 7.50005 10.5" stroke="white" stroke-width="1.5" stroke-linecap="round" stroke-linejoin="round"/>
</svg>
